<?xml version="1.0" encoding="UTF-8"?>
<svg id="Layer_1" data-name="Layer 1" xmlns="http://www.w3.org/2000/svg" xmlns:xlink="http://www.w3.org/1999/xlink" viewBox="0 0 256.42 148.42">
  <defs>
    <style>
      .cls-1 {
        fill: url(#linear-gradient-2);
      }

      .cls-2 {
        fill: #fff;
      }

      .cls-3 {
        fill: url(#linear-gradient-4);
      }

      .cls-4 {
        fill: url(#linear-gradient-3);
      }

      .cls-5 {
        fill: url(#linear-gradient-5);
      }

      .cls-6 {
        fill: url(#linear-gradient-8);
      }

      .cls-7 {
        fill: url(#linear-gradient-7);
      }

      .cls-8 {
        fill: url(#linear-gradient-9);
      }

      .cls-9 {
        fill: url(#linear-gradient-6);
      }

      .cls-10 {
        fill: #ff541f;
      }

      .cls-11 {
        fill: url(#linear-gradient);
      }
    </style>
    <linearGradient id="linear-gradient" x1="52.96" y1="104.26" x2="52.96" y2="42.61" gradientUnits="userSpaceOnUse">
      <stop offset="0" stop-color="#ff4a1f"/>
      <stop offset=".4" stop-color="#ff5413"/>
      <stop offset="1" stop-color="#ff6800"/>
    </linearGradient>
    <linearGradient id="linear-gradient-2" x1="163.43" y1="114.96" x2="163.43" y2="108.11" gradientUnits="userSpaceOnUse">
      <stop offset="0" stop-color="#ff4a1f"/>
      <stop offset=".4" stop-color="#ff5413"/>
      <stop offset="1" stop-color="#ff6800"/>
    </linearGradient>
    <linearGradient id="linear-gradient-3" x1="169.44" x2="169.44" y2="108.11" xlink:href="#linear-gradient-2"/>
    <linearGradient id="linear-gradient-4" x1="178.88" y1="114.96" x2="178.88" y2="108.11" xlink:href="#linear-gradient-2"/>
    <linearGradient id="linear-gradient-5" x1="186.79" y1="114.96" x2="186.79" y2="108.11" xlink:href="#linear-gradient-2"/>
    <linearGradient id="linear-gradient-6" x1="195.47" y1="114.96" x2="195.47" y2="108.11" xlink:href="#linear-gradient-2"/>
    <linearGradient id="linear-gradient-7" x1="204.28" y1="114.96" x2="204.28" y2="108.11" xlink:href="#linear-gradient-2"/>
    <linearGradient id="linear-gradient-8" x1="211.33" y1="114.96" x2="211.33" y2="108.11" xlink:href="#linear-gradient-2"/>
    <linearGradient id="linear-gradient-9" x1="217.75" y1="114.96" x2="217.75" y2="108.11" xlink:href="#linear-gradient-2"/>
  </defs>
  <path class="cls-11" d="M71.79,58.68l-9.81.04v34.54c0,1.2.34,2.23.94,2.91.6.64,1.37,1.03,2.27,1.07,2.01-.17,3.81-.51,5.31-1.03l.99-.34v4.84l-.56.13c-2.49.69-1.67,1.03-8.57,1.03s-12.26-1.67-15.9-4.97c-3.86-3.43-5.79-8.53-5.79-15.26v-22.93l-6.56-.04v-4.5h6.56v-13.37h21.34v13.37h9.77v4.5ZM45.22,45.31v36.34c0,2.49.3,4.67.9,6.51.56,1.84,1.46,3.39,2.66,4.67,1.16,1.29,2.66,2.27,4.46,3,1.46.6,3.13,1.03,5.01,1.24-.52-1.16-.77-2.44-.77-3.81v-47.95h-12.26Z"/>
  <g>
    <path class="cls-10" d="M201.04,36.07h-4.84v4.84h4.84v-4.84ZM200.44,40.31h-3.64v-3.64h3.64v3.64Z"/>
    <rect class="cls-10" x="197.56" y="37.43" width="2.13" height="2.13"/>
    <path class="cls-10" d="M198.86,34.22v.68s3.35,0,3.35,0v3.35s.68,0,.68,0v-4.03s-4.03,0-4.03,0Z"/>
  </g>
  <path class="cls-2" d="M102.86,51.46v15.51h-5.12v-15.07c0-.22-.07-2.06-2.91-2.06l-8.95.04v17.06h-5.16v-25.75h5.16v3.98h9.43c6.96,0,7.55,4.61,7.52,6.3h.04Z"/>
  <path class="cls-2" d="M169.65,66.97l-6.93-21.77h5.6l6.93,21.77h-5.6ZM175.25,66.97l6.93-21.77h5.6l-6.93,21.77h-5.6Z"/>
  <polygon class="cls-2" points="206.45 49.76 201.08 49.76 201.08 62.32 206.45 62.32 206.45 66.93 201.08 66.93 201.08 66.97 196.32 66.97 196.32 66.93 190.91 66.93 190.91 62.32 196.32 62.32 196.32 49.76 190.91 49.76 190.91 45.16 206.45 45.16 206.45 49.76"/>
  <path class="cls-2" d="M96.26,84.23h-5.38v12.56h5.38v4.61h-5.38v.04h-4.75v-.04h-5.42v-4.61h5.42v-12.56h-5.42v-4.61h15.55v4.61ZM90.88,70.45v5.16h-4.79v-5.16h4.79Z"/>
  <path class="cls-2" d="M124.63,93.07v1.58c0,1.07.22,6.78-7.55,6.78h-8.51c-7.77,0-7.52-5.71-7.52-6.78v-8.25c0-1.07-.26-6.78,7.52-6.78h8.51c7.77,0,7.55,5.71,7.55,6.78v1.4h-5.12v-1.4c0-.22-.04-2.1-2.87-2.1h-7.59c-2.84,0-2.91,1.88-2.91,2.1v8.25c0,.22.07,2.1,2.91,2.1h7.59c2.84,0,2.87-1.88,2.87-2.1v-1.58h5.12Z"/>
  <path class="cls-2" d="M149.65,85.18h-9.14l8.77,16.25h-5.75l-8.44-16.25-.88-1.7v17.94h-4.79v-25.79h4.79v5.05h15.44v4.49Z"/>
  <path class="cls-2" d="M168.62,79.66c7.74,0,7.44,5.67,7.44,6.7v1.14c0,3.32-.04,6.81-.04,6.81h-16.43v2.21h16.43v4.86l-15.47.04c-4.38,0-6.12-2.39-6.12-5.34v-10.46c0-3.28,1.69-5.97,5.56-5.97h8.62ZM171.01,86.4c0-.22-.04-2.06-2.87-2.06l-6.37.04c-1.22,0-2.17.99-2.17,2.17v3.06l11.38.04.04-2.14v-1.11Z"/>
  <path class="cls-2" d="M195.7,84.23h-7.18v12.67h7.18v4.53h-8.07c-2.61,0-4.2-1.51-4.2-4.2v-13h-2.58v-4.61c2.84,0,2.54-.66,2.54-3.98h5.12c0,1.99-.29,3.24-1.33,3.98h8.51v4.61Z"/>
  <path class="cls-2" d="M222.29,87.69h-5.45v-1.29c0-.22-.07-1.84-2.51-2.06l-2.95-.04-4.9.04h-.04c-1.03.11-1.25,1.11-.26,1.51l12.27,4.86c5.6,2.25,4.16,10.46-1.84,10.72h-8.22c-7.33-.07-7.92-4.68-7.92-6.34v-1.73h5.45l.04,1.29c0,.22.04,1.84,2.47,2.06l2.95.04,4.86-.04h.04c1.07-.11,1.25-1.14.29-1.51l-12.3-4.86c-5.78-2.28-4.09-10.72,2.28-10.72h7.81c7.29.07,7.92,4.68,7.92,6.34v1.73Z"/>
  <path class="cls-2" d="M159.59,51.94c0-1.07.22-6.78-7.55-6.78h-8.5c-7.77,0-7.52,5.71-7.52,6.78v8.26c0,1.06-.25,6.77,7.52,6.77h8.5c7.77,0,7.55-5.71,7.55-6.77v-8.26ZM141.1,54.21v-2.27c0-.22.08-2.1,2.91-2.1h7.59c2.84,0,2.87,1.88,2.87,2.1v2.35c-.61.39-1.02,1.05-1.02,1.79s.41,1.41,1.02,1.82v2.3c0,.21-.04,2.09-2.87,2.09h-7.59c-2.83,0-2.91-1.88-2.91-2.09v-2.34c.64-.39,1.06-1.06,1.06-1.82.01-.77-.42-1.45-1.06-1.83Z"/>
  <path class="cls-2" d="M131.23,51.94c0-1.07.22-6.78-7.55-6.78h-8.5c-7.77,0-7.52,5.71-7.52,6.78v8.26c0,1.06-.25,6.77,7.52,6.77h8.5c7.77,0,7.55-5.71,7.55-6.77v-8.26ZM112.73,54.21v-2.27c0-.22.08-2.1,2.91-2.1h7.59c2.84,0,2.87,1.88,2.87,2.1v2.35c-.61.39-1.02,1.05-1.02,1.79s.41,1.41,1.02,1.82v2.3c0,.21-.04,2.09-2.87,2.09h-7.59c-2.83,0-2.91-1.88-2.91-2.09v-2.34c.64-.39,1.06-1.06,1.06-1.82.01-.77-.42-1.45-1.06-1.83Z"/>
  <g>
    <path class="cls-1" d="M166.63,114.2l-.96-1.98h-4.52l-.98,1.98h-1.21l3.97-8h1.12l3.86,8h-1.27ZM163.43,107.28l-1.88,3.98h3.74l-1.86-3.98Z"/>
    <path class="cls-4" d="M170.02,107.08h-1.16v-1.1h1.16v1.1ZM169.99,114.2h-1.1v-5.76h1.1v5.76Z"/>
    <path class="cls-3" d="M182.36,109.76c0,.97-.46,1.28-1.37,1.28h-4.49v3.15h-1.12v-8h5.7c1,0,1.27.55,1.27,1.27v2.29ZM181.25,107.84c0-.43-.02-.64-.49-.64h-4.25v2.83h4.23c.43,0,.5-.14.5-.52v-1.68Z"/>
    <path class="cls-5" d="M189.88,113.15c0,.76-.28,1.04-1.08,1.04h-4.03c-.77,0-1.06-.29-1.06-1.04v-3.67c0-.73.26-1.04,1.07-1.04h4.02c.82,0,1.08.31,1.08,1.03v3.68ZM184.81,113.04c0,.11.05.17.16.17h3.63c.11,0,.17-.06.17-.17v-3.45c0-.11-.06-.17-.18-.17h-3.61c-.11,0-.17.06-.17.17v3.45Z"/>
    <path class="cls-9" d="M198.13,114.2h-.96l-1.7-4.11-1.68,4.11h-.97l-2.21-5.76h1.24l1.51,4.19,1.69-4.19h.9l1.72,4.2,1.5-4.2h1.18l-2.21,5.76Z"/>
    <path class="cls-7" d="M207.3,111.68h-4.94v1.42c0,.1.06.14.17.14h3.67v-.82l1.09.22v.58c0,.59-.23.98-1.06.98h-3.92c-.78,0-1.06-.31-1.06-1v-3.73c0-.8.37-1.03,1.09-1.03h3.9c.83,0,1.06.34,1.06,1v2.24ZM206.2,109.55c0-.11-.06-.16-.17-.16h-3.5c-.11,0-.17.05-.17.16v1.21h3.84v-1.21Z"/>
    <path class="cls-6" d="M212.47,108.44c.83,0,1.09.34,1.09,1.07v.97l-1.1.22v-1.12c0-.11-.05-.16-.16-.16h-2.11v4.77h-1.1v-5.76h3.38Z"/>
    <path class="cls-8" d="M215.73,114.2c-.92,0-1.06-.38-1.06-1.49v-3.2c0-1.01.34-1.07,1.54-1.07h2.84c.42,0,.6.1.68.14v-3.03l1.1-.24v7.86c0,.76-.29,1.03-1.07,1.03h-4.04ZM215.77,113.03c0,.11.06.16.17.16h3.62c.11,0,.17-.05.17-.16v-3.48c-.08-.06-.23-.13-.5-.13h-3.27c-.12,0-.18.06-.18.17v3.44Z"/>
  </g>
</svg>