<?xml version="1.0" encoding="UTF-8"?>
<svg id="Layer_1" data-name="Layer 1" xmlns="http://www.w3.org/2000/svg" xmlns:xlink="http://www.w3.org/1999/xlink" viewBox="0 0 256.42 148.42">
  <defs>
    <style>
      .cls-1 {
        fill: #ff541f;
      }

      .cls-2 {
        fill: url(#linear-gradient);
      }
    </style>
    <linearGradient id="linear-gradient" x1="52.63" y1="111.31" x2="52.63" y2="49.66" gradientUnits="userSpaceOnUse">
      <stop offset="0" stop-color="#ff4a1f"/>
      <stop offset=".4" stop-color="#ff5413"/>
      <stop offset="1" stop-color="#ff6800"/>
    </linearGradient>
  </defs>
  <path class="cls-2" d="M71.46,65.73l-9.81.04v34.54c0,1.2.34,2.23.94,2.91.6.64,1.37,1.03,2.27,1.07,2.01-.17,3.81-.51,5.31-1.03l.99-.34v4.84l-.56.13c-2.49.69-1.67,1.03-8.57,1.03s-12.26-1.67-15.9-4.97c-3.86-3.43-5.79-8.53-5.79-15.26v-22.93l-6.56-.04v-4.5h6.56v-13.37h21.34v13.37h9.77v4.5ZM44.89,52.36v36.34c0,2.49.3,4.67.9,6.51.56,1.84,1.46,3.39,2.66,4.67,1.16,1.29,2.66,2.27,4.46,3,1.46.6,3.13,1.03,5.01,1.24-.52-1.16-.77-2.44-.77-3.81v-47.95h-12.26Z"/>
  <g>
    <path class="cls-1" d="M200.71,43.13h-4.84v4.84h4.84v-4.84ZM200.11,47.36h-3.64v-3.64h3.64v3.64Z"/>
    <rect class="cls-1" x="197.23" y="44.48" width="2.13" height="2.13"/>
    <path class="cls-1" d="M198.53,41.28v.68s3.35,0,3.35,0v3.35s.68,0,.68,0v-4.03s-4.03,0-4.03,0Z"/>
  </g>
  <path d="M102.53,58.51v15.51h-5.12v-15.07c0-.22-.07-2.06-2.91-2.06l-8.95.04v17.06h-5.16v-25.75h5.16v3.98h9.43c6.96,0,7.55,4.61,7.52,6.3h.04Z"/>
  <path d="M169.32,74.02l-6.93-21.77h5.6l6.93,21.77h-5.6ZM174.92,74.02l6.93-21.77h5.6l-6.93,21.77h-5.6Z"/>
  <polygon points="206.12 56.82 200.74 56.82 200.74 69.38 206.12 69.38 206.12 73.98 200.74 73.98 200.74 74.02 195.99 74.02 195.99 73.98 190.58 73.98 190.58 69.38 195.99 69.38 195.99 56.82 190.58 56.82 190.58 52.21 206.12 52.21 206.12 56.82"/>
  <path d="M95.93,91.28h-5.38v12.56h5.38v4.61h-5.38v.04h-4.75v-.04h-5.42v-4.61h5.42v-12.56h-5.42v-4.61h15.55v4.61ZM90.55,77.5v5.16h-4.79v-5.16h4.79Z"/>
  <path d="M124.3,100.12v1.58c0,1.07.22,6.78-7.55,6.78h-8.51c-7.77,0-7.52-5.71-7.52-6.78v-8.25c0-1.07-.26-6.78,7.52-6.78h8.51c7.77,0,7.55,5.71,7.55,6.78v1.4h-5.12v-1.4c0-.22-.04-2.1-2.87-2.1h-7.59c-2.84,0-2.91,1.88-2.91,2.1v8.25c0,.22.07,2.1,2.91,2.1h7.59c2.84,0,2.87-1.88,2.87-2.1v-1.58h5.12Z"/>
  <path d="M149.31,92.24h-9.14l8.77,16.25h-5.75l-8.44-16.25-.88-1.7v17.94h-4.79v-25.79h4.79v5.05h15.44v4.49Z"/>
  <path d="M168.29,86.71c7.74,0,7.44,5.67,7.44,6.7v1.14c0,3.32-.04,6.81-.04,6.81h-16.43v2.21h16.43v4.86l-15.47.04c-4.38,0-6.12-2.39-6.12-5.34v-10.46c0-3.28,1.69-5.97,5.56-5.97h8.62ZM170.68,93.46c0-.22-.04-2.06-2.87-2.06l-6.37.04c-1.22,0-2.17.99-2.17,2.17v3.06l11.38.04.04-2.14v-1.11Z"/>
  <path d="M195.37,91.28h-7.18v12.67h7.18v4.53h-8.07c-2.61,0-4.2-1.51-4.2-4.2v-13h-2.58v-4.61c2.84,0,2.54-.66,2.54-3.98h5.12c0,1.99-.29,3.24-1.33,3.98h8.51v4.61Z"/>
  <path d="M221.96,94.75h-5.45v-1.29c0-.22-.07-1.84-2.51-2.06l-2.95-.04-4.9.04h-.04c-1.03.11-1.25,1.11-.26,1.51l12.27,4.86c5.6,2.25,4.16,10.46-1.84,10.72h-8.22c-7.33-.07-7.92-4.68-7.92-6.34v-1.73h5.45l.04,1.29c0,.22.04,1.84,2.47,2.06l2.95.04,4.86-.04h.04c1.07-.11,1.25-1.14.29-1.51l-12.3-4.86c-5.78-2.28-4.09-10.72,2.28-10.72h7.81c7.29.07,7.92,4.68,7.92,6.34v1.73Z"/>
  <path d="M159.26,58.99c0-1.07.22-6.78-7.55-6.78h-8.5c-7.77,0-7.52,5.71-7.52,6.78v8.26c0,1.06-.25,6.77,7.52,6.77h8.5c7.77,0,7.55-5.71,7.55-6.77v-8.26ZM140.76,61.26v-2.27c0-.22.08-2.1,2.91-2.1h7.59c2.84,0,2.87,1.88,2.87,2.1v2.35c-.61.39-1.02,1.05-1.02,1.79s.41,1.41,1.02,1.82v2.3c0,.21-.04,2.09-2.87,2.09h-7.59c-2.83,0-2.91-1.88-2.91-2.09v-2.34c.64-.39,1.06-1.06,1.06-1.82.01-.77-.42-1.45-1.06-1.83Z"/>
  <path d="M130.89,58.99c0-1.07.22-6.78-7.55-6.78h-8.5c-7.77,0-7.52,5.71-7.52,6.78v8.26c0,1.06-.25,6.77,7.52,6.77h8.5c7.77,0,7.55-5.71,7.55-6.77v-8.26ZM112.4,61.26v-2.27c0-.22.08-2.1,2.91-2.1h7.59c2.84,0,2.87,1.88,2.87,2.1v2.35c-.61.39-1.02,1.05-1.02,1.79s.41,1.41,1.02,1.82v2.3c0,.21-.04,2.09-2.87,2.09h-7.59c-2.83,0-2.91-1.88-2.91-2.09v-2.34c.64-.39,1.06-1.06,1.06-1.82.01-.77-.42-1.45-1.06-1.83Z"/>
</svg>